<svg width="60" height="37" fill="none" xmlns="http://www.w3.org/2000/svg"><path d="M18.033 3.01v15.465h-2.09V5.476a4.55 4.55 0 00-.85 1.085c-.26.428-.519.88-.778 1.357l-.875 1.727a8.135 8.135 0 01-.948 1.504 4.41 4.41 0 01-1.19 1.086c-.438.263-.973.394-1.605.394s-1.166-.131-1.604-.394a4.362 4.362 0 01-1.166-1.036 9.31 9.31 0 01-.875-1.48c-.26-.543-.527-1.094-.802-1.653a22.981 22.981 0 00-.827-1.455c-.259-.46-.55-.839-.875-1.135v13h-2.09V3.008H3.5c.47.165.883.403 1.24.716.372.296.704.641.996 1.036.291.378.55.789.777 1.233.243.428.478.855.705 1.283.243.493.454.945.632 1.356.178.395.357.732.535 1.012.178.263.364.468.559.616.21.148.462.222.753.222.308 0 .567-.074.778-.222.21-.148.405-.353.583-.616.195-.28.381-.617.56-1.012.194-.41.412-.863.655-1.356.211-.428.438-.855.68-1.283.244-.444.511-.855.803-1.233.292-.395.616-.74.972-1.036.373-.313.794-.551 1.264-.716h2.041zM45.807 25.752a7.834 7.834 0 01-1.483 2.565 8.003 8.003 0 01-2.43 1.9 7.792 7.792 0 01-3.573.863 8.345 8.345 0 01-2.236-.296 8.388 8.388 0 01-1.993-.888 8.6 8.6 0 01-1.677-1.406 8.156 8.156 0 01-1.24-1.85 8.918 8.918 0 01-.631-1.776 8.426 8.426 0 01.097-3.996 8.65 8.65 0 01.875-2.023A7.424 7.424 0 0132.9 17.12a8.082 8.082 0 011.872-1.332 8.09 8.09 0 013.62-.864c.763 0 1.492.107 2.188.321a7.26 7.26 0 011.993.888 7.427 7.427 0 011.653 1.381c.502.543.923 1.16 1.264 1.85.178.346.324.683.437 1.012h-1.337a14.233 14.233 0 00-.68-.025h-.267a12.509 12.509 0 01-.05-.025 5.531 5.531 0 00-2.138-2.392 5.675 5.675 0 00-3.062-.864c-.956 0-1.847.214-2.673.642-.519.263-.98.592-1.386.986a5.89 5.89 0 00-.996 1.283c-.276.46-.486.954-.632 1.48a5.944 5.944 0 00.389 4.218c.486 1.02 1.19 1.817 2.114 2.393a5.84 5.84 0 003.111.863c.875 0 1.75-.214 2.625-.641a5.534 5.534 0 001.507-1.086 6.1 6.1 0 001.069-1.455h2.285zm12.941-10.385V30.81h-2.114V17.464h-.292a1.75 1.75 0 00-.292-.025c-.518 0-1.053.066-1.604.198a2.998 2.998 0 00-1.434.838c-.988.938-1.482 2.631-1.482 5.082 0 2.894-.519 5.04-1.556 6.438a4.917 4.917 0 01-1.628 1.455 3.956 3.956 0 01-2.042.543v-2.146c.665 0 1.2-.222 1.604-.666.422-.444.738-.987.948-1.628a8.706 8.706 0 00.438-2.072c.08-.724.121-1.373.121-1.949 0-3.026.697-5.23 2.09-6.61a5.49 5.49 0 011.167-.889 5.18 5.18 0 011.24-.468c.437-.115.89-.181 1.36-.198.47-.033.973-.049 1.507-.049.114 0 .268.008.462.025.21.016.356.024.438.024h1.069z" fill="#2C3045"/><path d="M3.987 30.833c1.678 0 3.038-1.38 3.038-3.083 0-1.703-1.36-3.083-3.038-3.083-1.677 0-3.038 1.38-3.038 3.083 0 1.703 1.36 3.083 3.038 3.083z" fill="#D83E53"/><path fill-rule="evenodd" clip-rule="evenodd" d="M54.982 3.468a.64.64 0 01.913 0l2.966 3.007a.66.66 0 010 .925l-2.966 3.007a.64.64 0 01-.913 0 .661.661 0 010-.925l1.864-1.89h-12.15a.65.65 0 01-.645-.655.65.65 0 01.645-.654h12.15l-1.864-1.89a.661.661 0 010-.925z" fill="#D83E53"/><path fill-rule="evenodd" clip-rule="evenodd" d="M39.69 3.957L12.633 31.418l-1.342-1.362L38.348 2.595l1.342 1.362z" fill="#2C3045"/></svg>