<svg width="12" height="12" fill="none" xmlns="http://www.w3.org/2000/svg"><path d="M10.874 2.616a.36.36 0 00-.068-.208.332.332 0 00-.024-.03l-.006-.006-.005-.006a.331.331 0 00-.028-.026l-.014-.011a.34.34 0 00-.015-.012l-.014-.009-.017-.01-.015-.008a.39.39 0 00-.017-.008l-.017-.007-.017-.006-.018-.005-.017-.005-.019-.003a.358.358 0 00-.055-.006H1.493a.377.377 0 00-.057.006l-.018.003-.017.005-.018.005-.017.006-.017.007-.017.008-.015.008a.376.376 0 00-.017.01l-.014.01a.357.357 0 00-.057.048l-.005.006-.006.007a.393.393 0 00-.079.145.37.37 0 00-.014.092V9a.75.75 0 00.75.75h8.25a.751.751 0 00.75-.75V2.625v-.009zm-8.999.861L4.627 6 1.875 8.523V3.477zM2.465 9l2.717-2.491.565.517a.375.375 0 00.506 0l.565-.517L9.536 9H2.464zm4.908-3l2.752-2.523v5.046L7.373 6z" fill="currentColor"/></svg>