<svg width="24" height="24" fill="none" xmlns="http://www.w3.org/2000/svg"><path d="M19.28 12.97a.75.75 0 00-1.06 0l-5.47 5.47V3.75a.75.75 0 10-1.5 0v14.69l-5.47-5.47a.75.75 0 00-1.06 1.06l6.75 6.75.007.007c.015.015.031.03.047.043l.029.021.03.023.034.02.03.017.034.017.032.015c.011.005.022.008.034.012l.035.013.034.008.037.01.04.005.033.005a.762.762 0 00.148 0c.011 0 .022-.003.033-.005l.04-.006.037-.009.034-.008.035-.013c.012-.004.023-.007.034-.012l.032-.015c.012-.006.023-.01.035-.017l.03-.017.032-.02.031-.023.029-.021a.76.76 0 00.048-.043l.006-.007 6.75-6.75a.75.75 0 000-1.06z" fill="#fff"/></svg>