<svg width="20" height="20" fill="none" xmlns="http://www.w3.org/2000/svg"><path d="M17.341 12.377l-3.659-1.568a1.246 1.246 0 00-1.186.109l-1.956 1.304a5.98 5.98 0 01-2.75-2.738l1.3-1.986a1.248 1.248 0 00.103-1.177l-1.57-3.663a1.252 1.252 0 00-1.301-.748A4.38 4.38 0 002.5 6.25c0 6.203 5.047 11.25 11.25 11.25a4.38 4.38 0 004.34-3.822 1.253 1.253 0 00-.748-1.3zM12.293 3.729a5.635 5.635 0 013.978 3.978.625.625 0 001.208-.323 6.887 6.887 0 00-4.863-4.863.625.625 0 00-.323 1.208zM11.646 6.144a3.13 3.13 0 012.21 2.21.625.625 0 001.207-.323 4.383 4.383 0 00-3.094-3.094.625.625 0 00-.323 1.207z" fill="currentColor"/></svg>