<svg width="32" height="32" fill="none" xmlns="http://www.w3.org/2000/svg"><path d="M31 14.993l-.002-.032a1.067 1.067 0 00-.006-.082l-.006-.036a1.008 1.008 0 00-.053-.2l-.005-.014-.006-.016-.001-.003-1.741-4.353A1.991 1.991 0 0027.323 9H23V8a1 1 0 00-1-1H3a2.002 2.002 0 00-2 2v14a2.002 2.002 0 002 2h1.627a4 4 0 007.746 0h7.254a4 4 0 007.746 0H29a2.002 2.002 0 002-2v-8-.007zM23 11h4.323l1.2 3H23v-3zM3 9h18v8H3V9zm5.5 17a2 2 0 110-4 2 2 0 010 4zm15 0a2 2 0 110-4 2 2 0 010 4z" fill="#D83E53"/></svg>