<svg width="32" height="32" fill="none" xmlns="http://www.w3.org/2000/svg"><path d="M28.74 8.853l-.008-.019-.005-.007a1.998 1.998 0 00-.747-.735l-11-6.188a2.012 2.012 0 00-1.96 0l-11 6.188a2 2 0 00-.749.739l-.006.01-.008.016A1.998 1.998 0 003 9.835v12.33a2.002 2.002 0 001.02 1.743l11 6.188c.277.155.587.241.904.253l.069.004h.009a.995.995 0 00.093-.005c.31-.014.614-.1.885-.252l11-6.188A2.002 2.002 0 0029 22.165V9.835c0-.344-.09-.683-.26-.982zM16 3.647l9.968 5.607-3.828 2.175-10.085-5.563L16 3.647zm.114 11.206L6.047 9.246l3.958-2.226L20.1 12.588l-3.986 2.265zm.901 12.929l.099-11.197 4.014-2.28v4.759a1 1 0 102 0v-5.896l3.872-2.2v11.197l-9.985 5.617z" fill="#D83E53"/></svg>