<?xml version="1.0" encoding="utf-8"?><svg xmlns="http://www.w3.org/2000/svg" xmlns:xlink="http://www.w3.org/1999/xlink"><symbol fill="none" viewBox="0 0 12 12" id="base-phone" xmlns="http://www.w3.org/2000/svg"><path d="m10.405 7.426-2.196-.94a.748.748 0 0 0-.711.065l-1.174.782a3.588 3.588 0 0 1-1.65-1.643l.78-1.191a.748.748 0 0 0 .062-.707l-.942-2.197a.751.751 0 0 0-.78-.45A2.628 2.628 0 0 0 1.5 3.75a6.758 6.758 0 0 0 6.75 6.75 2.628 2.628 0 0 0 2.604-2.293.752.752 0 0 0-.45-.78Z" fill="currentColor"/></symbol><symbol fill="none" viewBox="0 0 60 37" id="black-logo" xmlns="http://www.w3.org/2000/svg"><path d="M18.033 3.01v15.465h-2.09V5.476a4.55 4.55 0 0 0-.85 1.085c-.26.428-.519.88-.778 1.357l-.875 1.727a8.135 8.135 0 0 1-.948 1.504 4.41 4.41 0 0 1-1.19 1.086c-.438.263-.973.394-1.605.394s-1.166-.131-1.604-.394a4.362 4.362 0 0 1-1.166-1.036 9.31 9.31 0 0 1-.875-1.48c-.26-.543-.527-1.094-.802-1.653a22.981 22.981 0 0 0-.827-1.455c-.259-.46-.55-.839-.875-1.135v13h-2.09V3.008H3.5c.47.165.883.403 1.24.716.372.296.704.641.996 1.036.291.378.55.789.777 1.233.243.428.478.855.705 1.283.243.493.454.945.632 1.356.178.395.357.732.535 1.012.178.263.364.468.559.616.21.148.462.222.753.222.308 0 .567-.074.778-.222.21-.148.405-.353.583-.616.195-.28.381-.617.56-1.012.194-.41.412-.863.655-1.356.211-.428.438-.855.68-1.283.244-.444.511-.855.803-1.233.292-.395.616-.74.972-1.036.373-.313.794-.551 1.264-.716h2.041ZM45.807 25.752a7.834 7.834 0 0 1-1.483 2.565 8.003 8.003 0 0 1-2.43 1.9 7.792 7.792 0 0 1-3.573.863 8.345 8.345 0 0 1-2.236-.296 8.388 8.388 0 0 1-1.993-.888 8.6 8.6 0 0 1-1.677-1.406 8.156 8.156 0 0 1-1.24-1.85 8.918 8.918 0 0 1-.631-1.776 8.426 8.426 0 0 1 .097-3.996 8.65 8.65 0 0 1 .875-2.023A7.424 7.424 0 0 1 32.9 17.12a8.082 8.082 0 0 1 1.872-1.332 8.09 8.09 0 0 1 3.62-.864c.763 0 1.492.107 2.188.321a7.26 7.26 0 0 1 1.993.888 7.427 7.427 0 0 1 1.653 1.381c.502.543.923 1.16 1.264 1.85.178.346.324.683.437 1.012h-1.337a14.233 14.233 0 0 0-.68-.025h-.267a12.509 12.509 0 0 1-.05-.025 5.531 5.531 0 0 0-2.138-2.392 5.675 5.675 0 0 0-3.062-.864c-.956 0-1.847.214-2.673.642-.519.263-.98.592-1.386.986a5.89 5.89 0 0 0-.996 1.283c-.276.46-.486.954-.632 1.48a5.944 5.944 0 0 0 .389 4.218c.486 1.02 1.19 1.817 2.114 2.393a5.84 5.84 0 0 0 3.111.863c.875 0 1.75-.214 2.625-.641a5.534 5.534 0 0 0 1.507-1.086 6.1 6.1 0 0 0 1.069-1.455h2.285Zm12.941-10.385V30.81h-2.114V17.464h-.292a1.75 1.75 0 0 0-.292-.025c-.518 0-1.053.066-1.604.198a2.998 2.998 0 0 0-1.434.838c-.988.938-1.482 2.631-1.482 5.082 0 2.894-.519 5.04-1.556 6.438a4.917 4.917 0 0 1-1.628 1.455 3.956 3.956 0 0 1-2.042.543v-2.146c.665 0 1.2-.222 1.604-.666.422-.444.738-.987.948-1.628a8.706 8.706 0 0 0 .438-2.072c.08-.724.121-1.373.121-1.949 0-3.026.697-5.23 2.09-6.61a5.49 5.49 0 0 1 1.167-.889 5.18 5.18 0 0 1 1.24-.468c.437-.115.89-.181 1.36-.198.47-.033.973-.049 1.507-.049.114 0 .268.008.462.025.21.016.356.024.438.024h1.069Z" fill="#2C3045"/><path d="M3.987 30.833c1.678 0 3.038-1.38 3.038-3.083 0-1.703-1.36-3.083-3.038-3.083-1.677 0-3.038 1.38-3.038 3.083 0 1.703 1.36 3.083 3.038 3.083Z" fill="#D83E53"/><path fill-rule="evenodd" clip-rule="evenodd" d="M54.982 3.468a.64.64 0 0 1 .913 0l2.966 3.007a.66.66 0 0 1 0 .925l-2.966 3.007a.64.64 0 0 1-.913 0 .661.661 0 0 1 0-.925l1.864-1.89h-12.15a.65.65 0 0 1-.645-.655.65.65 0 0 1 .645-.654h12.15l-1.864-1.89a.661.661 0 0 1 0-.925Z" fill="#D83E53"/><path fill-rule="evenodd" clip-rule="evenodd" d="M39.69 3.957 12.633 31.418l-1.342-1.362L38.348 2.595l1.342 1.362Z" fill="#2C3045"/></symbol><symbol fill="none" viewBox="0 0 32 32" id="burger" xmlns="http://www.w3.org/2000/svg"><path d="M5 8h22M5 16h22M5 24h13" stroke="#fff" stroke-width="2" stroke-linecap="round" stroke-linejoin="round"/></symbol><symbol fill="none" viewBox="0 0 32 32" id="close" xmlns="http://www.w3.org/2000/svg"><path d="M25 7 7 25M25 25 7 7" stroke="#2C3045" stroke-width="2" stroke-linecap="round" stroke-linejoin="round"/></symbol><symbol fill="none" viewBox="0 0 12 12" id="email" xmlns="http://www.w3.org/2000/svg"><path d="M10.874 2.616a.36.36 0 0 0-.068-.208.332.332 0 0 0-.024-.03l-.006-.006-.005-.006a.331.331 0 0 0-.028-.026l-.014-.011a.34.34 0 0 0-.015-.012l-.014-.009-.017-.01-.015-.008a.39.39 0 0 0-.017-.008l-.017-.007-.017-.006-.018-.005-.017-.005-.019-.003a.358.358 0 0 0-.055-.006H1.493a.377.377 0 0 0-.057.006l-.018.003-.017.005-.018.005-.017.006-.017.007-.017.008-.015.008a.376.376 0 0 0-.017.01l-.014.01a.357.357 0 0 0-.057.048l-.005.006-.006.007a.393.393 0 0 0-.079.145.37.37 0 0 0-.014.092V9a.75.75 0 0 0 .75.75h8.25a.751.751 0 0 0 .75-.75V2.616Zm-8.999.861L4.627 6 1.875 8.523V3.477ZM2.465 9l2.717-2.491.565.517a.375.375 0 0 0 .506 0l.565-.517L9.536 9H2.464Zm4.908-3 2.752-2.523v5.046L7.373 6Z" fill="currentColor"/></symbol><symbol fill="none" viewBox="0 0 18 18" id="hand" xmlns="http://www.w3.org/2000/svg"><path d="M9 7.313V2.53a1.406 1.406 0 0 0-2.813 0v8.527l-1.541-2.67A1.406 1.406 0 1 0 2.21 9.793C4.5 14.625 5.893 16.312 9 16.312a5.625 5.625 0 0 0 5.625-5.625V7.876a1.406 1.406 0 0 0-2.813 0" stroke="#2C3045" stroke-opacity=".5" stroke-linecap="round" stroke-linejoin="round"/><path d="M11.813 7.875v-.844a1.406 1.406 0 0 0-2.813 0v.282" stroke="#2C3045" stroke-opacity=".5" stroke-linecap="round" stroke-linejoin="round"/></symbol><symbol fill="none" viewBox="0 0 24 24" id="next" xmlns="http://www.w3.org/2000/svg"><path d="M19.28 12.97a.75.75 0 0 0-1.06 0l-5.47 5.47V3.75a.75.75 0 1 0-1.5 0v14.69l-5.47-5.47a.75.75 0 0 0-1.06 1.06l6.75 6.75.007.007c.015.015.031.03.047.043l.029.021.03.023.034.02.03.017.034.017.032.015c.011.005.022.008.034.012l.035.013.034.008.037.01.04.005.033.005a.762.762 0 0 0 .148 0c.011 0 .022-.003.033-.005l.04-.006.037-.009.034-.008.035-.013c.012-.004.023-.007.034-.012l.032-.015c.012-.006.023-.01.035-.017l.03-.017.032-.02.031-.023.029-.021a.76.76 0 0 0 .048-.043l.006-.007 6.75-6.75a.75.75 0 0 0 0-1.06Z" fill="#fff"/></symbol><symbol fill="none" viewBox="0 0 20 20" id="phone" xmlns="http://www.w3.org/2000/svg"><path d="m17.341 12.377-3.659-1.568a1.246 1.246 0 0 0-1.186.109l-1.956 1.304a5.98 5.98 0 0 1-2.75-2.738l1.3-1.986a1.248 1.248 0 0 0 .103-1.177l-1.57-3.663a1.252 1.252 0 0 0-1.301-.748A4.38 4.38 0 0 0 2.5 6.25c0 6.203 5.047 11.25 11.25 11.25a4.38 4.38 0 0 0 4.34-3.822 1.253 1.253 0 0 0-.748-1.3ZM12.293 3.729a5.635 5.635 0 0 1 3.978 3.978.625.625 0 0 0 1.208-.323 6.887 6.887 0 0 0-4.863-4.863.625.625 0 0 0-.323 1.208ZM11.646 6.144a3.13 3.13 0 0 1 2.21 2.21.625.625 0 0 0 1.207-.323 4.383 4.383 0 0 0-3.094-3.094.625.625 0 0 0-.323 1.207Z" fill="currentColor"/></symbol><symbol fill="none" viewBox="0 0 32 32" id="services1" xmlns="http://www.w3.org/2000/svg"><path d="m31 14.993-.002-.032a1.067 1.067 0 0 0-.006-.082l-.006-.036a1.008 1.008 0 0 0-.053-.2l-.005-.014-.006-.016-.001-.003-1.741-4.353A1.991 1.991 0 0 0 27.323 9H23V8a1 1 0 0 0-1-1H3a2.002 2.002 0 0 0-2 2v14a2.002 2.002 0 0 0 2 2h1.627a4 4 0 0 0 7.746 0h7.254a4 4 0 0 0 7.746 0H29a2.002 2.002 0 0 0 2-2v-8.007ZM23 11h4.323l1.2 3H23v-3ZM3 9h18v8H3V9Zm5.5 17a2 2 0 1 1 0-4 2 2 0 0 1 0 4Zm15 0a2 2 0 1 1 0-4 2 2 0 0 1 0 4Z" fill="#D83E53"/></symbol><symbol fill="none" viewBox="0 0 32 32" id="services2" xmlns="http://www.w3.org/2000/svg"><path d="m28.74 8.853-.008-.019-.005-.007a1.998 1.998 0 0 0-.747-.735l-11-6.188a2.012 2.012 0 0 0-1.96 0l-11 6.188a2 2 0 0 0-.749.739l-.006.01-.008.016A1.998 1.998 0 0 0 3 9.835v12.33a2.002 2.002 0 0 0 1.02 1.743l11 6.188c.277.155.587.241.904.253l.069.004h.009a.995.995 0 0 0 .093-.005c.31-.014.614-.1.885-.252l11-6.188A2.002 2.002 0 0 0 29 22.165V9.835c0-.344-.09-.683-.26-.982ZM16 3.647l9.968 5.607-3.828 2.175-10.085-5.563L16 3.647Zm.114 11.206L6.047 9.246l3.958-2.226L20.1 12.588l-3.986 2.265Zm.901 12.929.099-11.197 4.014-2.28v4.759a1 1 0 1 0 2 0v-5.896l3.872-2.2v11.197l-9.985 5.617Z" fill="#D83E53"/></symbol><symbol fill="none" viewBox="0 0 32 32" id="services3" xmlns="http://www.w3.org/2000/svg"><path d="m18.818 17.403 6.98-2.538a2 2 0 0 0 .018-3.752L6.412 3.836a2 2 0 0 0-2.575 2.575l7.277 19.405a1.982 1.982 0 0 0 1.872 1.297h.01a1.983 1.983 0 0 0 1.87-1.316l2.538-6.98 7.89 7.89a1 1 0 1 0 1.414-1.414l-7.89-7.89Z" fill="#D83E53"/></symbol><symbol fill="none" viewBox="0 0 32 32" id="services4" xmlns="http://www.w3.org/2000/svg"><path d="M26 4H6a2.003 2.003 0 0 0-2 2v7.333c0 11.183 9.478 14.89 11.38 15.52.402.137.838.137 1.241 0 1.9-.63 11.38-4.336 11.38-15.52V6a2.002 2.002 0 0 0-2-2Zm-3.81 8.724-7.333 7a1 1 0 0 1-1.381 0l-3.666-3.5a1 1 0 1 1 1.38-1.448l2.976 2.841 6.644-6.34a1.001 1.001 0 1 1 1.38 1.447Z" fill="#D83E53"/></symbol><symbol fill="none" viewBox="0 0 32 32" id="services5" xmlns="http://www.w3.org/2000/svg"><path d="m29 13.414-7.316 7.316c.57 1.585.806 4.236-1.649 7.498a1.998 1.998 0 0 1-3.01.21L11 22.414l-4.293 4.293a1 1 0 0 1-1.414-1.414L9.586 21l-6.049-6.049a2.002 2.002 0 0 1 .16-2.973c3.179-2.564 6.22-2.059 7.552-1.641L18.586 3a2.003 2.003 0 0 1 2.828 0L29 10.586a2 2 0 0 1 0 2.828Z" fill="#D83E53"/></symbol><symbol fill="none" viewBox="0 0 32 32" id="services6" xmlns="http://www.w3.org/2000/svg"><path d="M29.182 16v10a5.006 5.006 0 0 1-5 5H17a1 1 0 1 1 0-2h7.182a3.003 3.003 0 0 0 3-3v-.172c-.321.114-.66.172-1 .172h-2a3.003 3.003 0 0 1-3-3v-5a3.003 3.003 0 0 1 3-3h2.956A11.002 11.002 0 0 0 16.083 5 11.002 11.002 0 0 0 5.045 15H8a3.003 3.003 0 0 1 3 3v5a3.003 3.003 0 0 1-3 3H6a3.003 3.003 0 0 1-3-3v-7A13 13 0 0 1 16.183 3a13 13 0 0 1 12.999 13Z" fill="#D83E53"/></symbol></svg>