<svg width="87" height="53" fill="none" xmlns="http://www.w3.org/2000/svg"><path d="M26.148 4.31v22.155h-3.03V7.844c-.447.4-.858.919-1.234 1.555-.375.612-.751 1.26-1.127 1.943l-1.269 2.473c-.4.801-.857 1.52-1.374 2.156a6.362 6.362 0 01-1.727 1.554c-.635.377-1.41.566-2.326.566-.916 0-1.692-.189-2.326-.566a6.296 6.296 0 01-1.691-1.484 13.294 13.294 0 01-1.27-2.12c-.375-.777-.763-1.566-1.162-2.367-.4-.754-.799-1.449-1.198-2.085-.376-.66-.799-1.201-1.269-1.625v18.62h-3.03V4.312h2.96a5.42 5.42 0 011.797 1.024c.54.424 1.022.919 1.445 1.484.423.542.799 1.131 1.127 1.767.353.612.693 1.225 1.022 1.837.353.707.658 1.355.917 1.944.258.565.517 1.048.775 1.448.258.377.529.672.81.884.306.212.67.318 1.093.318.446 0 .822-.106 1.128-.318.305-.212.587-.507.845-.884.282-.4.553-.883.811-1.448.282-.59.6-1.237.952-1.944.305-.612.634-1.225.986-1.837a13.5 13.5 0 011.163-1.767 8.468 8.468 0 011.41-1.484 5.834 5.834 0 011.832-1.024h2.96zM66.42 36.888a11.193 11.193 0 01-2.15 3.675c-.963 1.107-2.138 2.014-3.524 2.72a11.41 11.41 0 01-5.18 1.237c-1.128 0-2.209-.141-3.243-.424a12.24 12.24 0 01-2.89-1.272 12.437 12.437 0 01-2.431-2.014 11.676 11.676 0 01-1.797-2.65c-.4-.824-.705-1.672-.916-2.544a11.932 11.932 0 01.141-5.724 12.308 12.308 0 011.268-2.897c.54-.919 1.21-1.743 2.009-2.474a11.732 11.732 0 012.713-1.908c1.692-.824 3.442-1.236 5.251-1.236 1.105 0 2.162.153 3.172.459 1.034.283 1.997.707 2.89 1.272a10.738 10.738 0 012.396 1.979c.728.777 1.34 1.66 1.832 2.65.259.494.47.977.635 1.448h-1.939a20.99 20.99 0 00-.986-.035h-.388l-.07-.035c-.705-1.46-1.739-2.603-3.102-3.428-1.339-.824-2.819-1.236-4.44-1.236a8.395 8.395 0 00-3.876.918 8.128 8.128 0 00-2.009 1.414 8.45 8.45 0 00-1.445 1.837c-.4.66-.705 1.366-.916 2.12a8.428 8.428 0 00.564 6.042c.705 1.46 1.727 2.603 3.066 3.427 1.362.825 2.866 1.237 4.51 1.237 1.27 0 2.538-.306 3.806-.919.823-.4 1.551-.918 2.185-1.554a8.74 8.74 0 001.55-2.085h3.314zm18.765-14.875V44.13h-3.066V25.016h-.423a2.569 2.569 0 00-.423-.035c-.752 0-1.527.094-2.326.282-.775.189-1.468.59-2.08 1.202-1.432 1.342-2.149 3.768-2.149 7.278 0 4.146-.752 7.22-2.255 9.222-.658.895-1.445 1.59-2.361 2.085-.893.518-1.88.777-2.96.777v-3.074c.963 0 1.738-.318 2.325-.954.611-.636 1.07-1.413 1.375-2.332.329-.942.54-1.931.634-2.968.118-1.036.176-1.967.176-2.791 0-4.334 1.01-7.49 3.03-9.47.565-.541 1.129-.965 1.692-1.271a7.574 7.574 0 011.798-.672 9.067 9.067 0 011.973-.282c.682-.047 1.41-.071 2.185-.071.165 0 .388.012.67.035.305.024.516.036.634.036h1.55z" fill="#fff"/><path d="M5.782 44.167a4.41 4.41 0 004.405-4.417 4.41 4.41 0 00-4.405-4.417 4.41 4.41 0 00-4.405 4.417 4.41 4.41 0 004.405 4.417z" fill="#D83E53"/><path fill-rule="evenodd" clip-rule="evenodd" d="M79.724 4.967a.935.935 0 011.324 0l4.301 4.308a.939.939 0 010 1.325l-4.301 4.308a.936.936 0 01-1.324 0 .938.938 0 010-1.326l2.703-2.707H64.81a.937.937 0 010-1.875h17.617l-2.703-2.707a.938.938 0 010-1.326z" fill="#D83E53"/><path fill-rule="evenodd" clip-rule="evenodd" d="M57.551 5.669L18.318 45.005l-1.946-1.952L55.604 3.717l1.947 1.952z" fill="#fff"/></svg>